<?xml version="1.0" encoding="UTF-8" standalone="no"?>
<svg
   xmlns:dc="http://purl.org/dc/elements/1.1/"
   xmlns:cc="http://creativecommons.org/ns#"
   xmlns:rdf="http://www.w3.org/1999/02/22-rdf-syntax-ns#"
   xmlns:svg="http://www.w3.org/2000/svg"
   xmlns="http://www.w3.org/2000/svg"
   xmlns:sodipodi="http://sodipodi.sourceforge.net/DTD/sodipodi-0.dtd"
   xmlns:inkscape="http://www.inkscape.org/namespaces/inkscape"
   width="163.76054mm"
   height="43.110546mm"
   viewBox="0 0 163.76054 43.110546"
   version="1.1"
   id="svg8"
   inkscape:version="1.0.2-2 (e86c870879, 2021-01-15)"
   sodipodi:docname="drawing.svg">
  <defs
     id="defs2" />
  <sodipodi:namedview
     id="base"
     pagecolor="#ffffff"
     bordercolor="#666666"
     borderopacity="1.0"
     inkscape:pageopacity="0.0"
     inkscape:pageshadow="2"
     inkscape:zoom="0.7"
     inkscape:cx="296.8225"
     inkscape:cy="205.68626"
     inkscape:document-units="mm"
     inkscape:current-layer="layer1"
     inkscape:document-rotation="0"
     showgrid="false"
     fit-margin-top="0"
     fit-margin-left="0"
     fit-margin-right="0"
     fit-margin-bottom="0"
     inkscape:window-width="1366"
     inkscape:window-height="705"
     inkscape:window-x="-8"
     inkscape:window-y="-8"
     inkscape:window-maximized="1" />
  <metadata
     id="metadata5">
    <rdf:RDF>
      <cc:Work
         rdf:about="">
        <dc:format>image/svg+xml</dc:format>
        <dc:type
           rdf:resource="http://purl.org/dc/dcmitype/StillImage" />
        <dc:title></dc:title>
      </cc:Work>
    </rdf:RDF>
  </metadata>
  <g
     inkscape:label="Layer 1"
     inkscape:groupmode="layer"
     id="layer1"
     transform="translate(-12.109412,-60.232871)">
    <g
       aria-label="Prasanth"
       id="text12"
       style="font-style:normal;font-variant:normal;font-weight:normal;font-stretch:normal;font-size:50.8px;line-height:1.55;font-family:'Blackadder ITC';-inkscape-font-specification:'Blackadder ITC, Normal';font-variant-ligatures:normal;font-variant-caps:normal;font-variant-numeric:normal;font-variant-east-asian:normal;fill:#000000;fill-opacity:1;stroke:none;stroke-width:0.264583">
      <path
         d="m 56.013709,61.91959 -0.595313,0.892969 q -2.207617,-0.09922 -3.869531,0.74414 -0.79375,-0.07441 -2.38125,-0.297656 -0.223242,0.04961 -1.934766,0.570508 -1.215429,0.37207 -1.95957,0.37207 -0.297656,0 -0.545703,-0.04961 -0.446484,0.496093 -1.438672,1.488281 h -0.545703 l -0.148828,0.223242 q -0.496094,0.223242 -1.265039,0.892969 -0.768946,0.669726 -1.265039,0.892969 v 0.198437 l -0.545703,0.545703 q 4.167187,0 4.167187,0 0.297656,0.02481 1.736328,0.520899 1.314649,0.446484 1.711524,0.37207 0.917773,0.42168 2.629296,1.438672 0.570508,1.16582 1.339454,3.571875 -0.148829,1.488281 -0.595313,3.001367 -0.42168,0.37207 -1.066602,1.661914 -0.74414,1.413867 -1.16582,1.909961 -1.041797,0.496094 -3.001367,1.637109 v 0.198438 q -0.644922,0.545703 -2.083594,1.041797 -1.413867,0.496093 -1.686718,0.74414 h -0.744141 l -0.892969,0.347266 -0.198437,0.74414 -0.694531,0.347266 -0.892969,-0.347266 q -0.198438,-1.240234 -0.942578,-1.984375 v -0.545703 h 0.942578 l 0.694531,-0.347265 q 1.091406,0.446484 1.438672,0.347265 l 1.984375,-0.545703 v -0.198437 l 0.545703,-0.148828 v -0.198438 l 1.091406,-0.545703 0.198438,-0.694531 1.240234,-0.446485 v -1.389062 l 0.198438,-0.148828 q 0.396875,-0.694532 0.545703,-1.488282 -0.595313,-1.637109 -0.297657,-4.142382 L 45.124451,72.064707 V 71.02291 L 44.38031,70.576426 v -0.396875 q -1.116211,-0.694532 -3.96875,-0.694532 -0.248047,0 -1.637109,0.347266 -0.446484,1.116211 -1.389062,2.38125 l -0.04961,1.785937 -0.347265,0.545704 h -0.198438 l -0.198437,0.148828 0.198437,0.396875 v 0.347265 l -0.595312,0.768946 v 0.148828 l -0.198438,0.198437 0.198438,0.347266 v 0.545703 l -0.768946,0.347266 -0.198437,1.289843 0.198437,0.148828 0.297656,0.496094 q -0.173632,0.644922 -0.843359,1.141016 h -0.148828 l -0.198437,0.198437 -0.248047,1.736328 q -1.314649,1.562696 -1.389063,3.522266 l -0.694531,0.917773 -0.496094,2.033985 q 0.148828,0.892968 0.148828,1.041797 0,-0.347266 -0.198437,1.637109 l -0.892969,0.992187 q -0.42168,1.413868 -1.686719,4.142383 v 1.190625 q -1.141015,0.694531 -2.629296,1.835549 l -0.396875,0.89297 -1.26504,0.34726 v 0.34727 l -1.240234,0.74414 q -0.570508,0.0992 -1.686719,0.34726 l -0.74414,-0.14882 q -0.545703,0.0992 -1.488281,0.44648 l -0.942579,-0.64492 q -0.471289,0.0496 -1.488281,-0.19844 l -0.148828,-0.34726 -0.892969,-0.19844 q -0.37207,-0.4961 -2.058789,-1.24024 -1.091406,-1.562692 -1.785937,-2.331637 -0.198438,-2.778125 -0.198438,-2.207617 0,0.545703 0.198438,-1.835547 0.37207,-0.520898 0.892969,-1.5875 v -0.942578 l 0.396875,-0.347266 0.694531,-0.198437 v -0.347266 h 0.768945 q 0.719336,0.248047 1.5875,0.545703 l 0.942578,1.289844 0.148828,0.694531 -0.347265,0.347266 -0.198438,1.835547 -0.347265,0.545703 H 16.152576 L 15.06117,94.488144 14.093787,94.289707 13.746522,94.83541 v 1.984375 q 0,0.173632 0.545703,1.810742 2.257226,1.091406 2.75332,2.033983 l 1.438672,0.34727 1.438672,-0.34727 1.091406,-0.744139 0.347266,0.198439 0.892968,-0.396877 0.84336,-0.843359 q 0.520898,-1.5875 2.406054,-3.844727 0.322461,-1.314648 0.892969,-3.323828 l 0.942578,-0.248047 -0.198437,-0.74414 q 0.322461,-1.141016 0.496093,-2.827735 l 0.694532,-0.595312 q 0.223242,-1.066602 0.148828,-2.257227 h 0.198437 q 0.272852,-0.917773 0.198438,-1.637109 h 0.148828 l 0.545703,-1.637109 0.942578,-0.892969 0.446485,-1.339453 -0.297657,-0.446485 0.744141,-1.289843 -0.347266,-0.347266 0.79375,-1.190625 -0.148828,-1.016992 0.892969,-0.545703 0.198437,-0.347266 -0.198437,-1.091406 0.892969,-0.892969 V 71.81666 l 0.545703,-0.347266 q 0.421679,-1.091406 1.091406,-1.835546 v -0.694532 h -0.148828 q -2.480469,0.42168 -3.472656,0.347266 -1.413867,0.595312 -4.266407,1.736328 -0.644921,0.173633 -1.90996,0.595313 -0.198438,0.04961 -0.892969,0.74414 l -1.091406,0.347266 q -0.570508,1.141015 -2.530078,2.182812 -0.818555,1.661914 -1.785938,2.207617 l -0.198437,0.347266 -0.694532,0.545703 v 0.892969 l -0.396875,0.892969 0.396875,0.198437 q -0.04961,0.669727 0.148828,1.785938 l 1.091407,-0.148829 0.74414,-0.545703 1.289844,-0.347265 1.389063,-1.091407 0.396874,-0.74414 0.545704,-0.347266 q 0.248046,-0.570508 0.148828,-1.289844 -0.322461,-0.644921 -0.694532,-0.892968 V 75.78541 q 0.223243,-0.322461 1.240235,-0.892969 v -0.198437 l 0.545703,-0.148828 q 0.868164,0.223242 1.661914,1.240234 l -0.198437,1.116211 -0.347266,0.545703 -0.148828,1.438672 -0.620117,1.190625 q -0.967383,0.818554 -2.331641,0.992187 -0.967383,1.165821 -3.274219,1.785938 l -1.984375,-0.148828 -1.240234,-0.744141 q -0.173633,-0.396875 -0.545703,-0.694531 0.07441,-0.272852 -0.173633,-1.091406 -0.248047,-0.818555 -0.173633,-1.289844 0.669727,-1.141016 1.438672,-1.63711 l 0.694531,-1.463476 q 0.42168,-0.496094 1.339453,-1.389063 1.810743,-1.438671 2.976563,-2.182812 0.520898,-0.198438 1.488281,-0.694531 0.520899,-0.446485 1.637109,-1.190625 0.42168,-0.124024 1.21543,-0.396875 0.694531,-0.396875 2.083594,-1.041797 1.364258,-0.496094 4.117578,-0.892969 0.694531,0.02481 2.182812,-0.297656 0.917774,0.471289 1.810743,0.297656 0.446484,-0.173633 1.066601,-0.892969 0.446484,-0.545703 0.917774,-1.091406 0.843359,-0.818554 1.785937,-1.413867 1.537891,-0.768945 4.514453,-2.38125 0.892969,0.0248 3.175,-0.669726 2.182812,-0.644922 3.050977,-1.165821 0.124023,0 0.37207,0.02481 0.248047,0.02481 0.37207,0.02481 0.248047,0 0.768945,-0.09922 0.545704,-0.09922 0.818555,-0.09922 0.297656,0 1.016992,0.124024 0.719336,0.09922 1.116211,0.07441 z"
         style="font-style:normal;font-variant:normal;font-weight:normal;font-stretch:normal;font-size:50.8px;font-family:'Blackadder ITC';-inkscape-font-specification:'Blackadder ITC, Normal';font-variant-ligatures:normal;font-variant-caps:normal;font-variant-numeric:normal;font-variant-east-asian:normal;stroke-width:0.264583"
         id="path31" />
      <path
         d="m 60.701793,91.561191 -0.09922,1.190625 -0.620117,0.148828 q -0.173633,-0.09922 -1.438672,-0.09922 -0.446485,0 -1.141016,-0.347265 -0.496094,-0.79375 -0.79375,-1.141016 l -0.744141,-0.297656 q -0.694531,0.520898 -1.041796,1.289844 l -0.09922,0.694531 -0.545703,0.347265 -0.545703,0.892969 0.04961,0.644922 -0.198438,0.644922 -0.446484,0.198437 0.04961,0.694532 -0.545703,0.570507 q -0.09922,0.768946 -0.496093,1.240235 l -0.545703,0.198437 -0.09922,0.644922 0.09922,0.446485 -0.198438,0.744144 -0.347266,0.49609 -0.148828,0.69453 -0.644922,0.79375 q -0.892968,0.19844 -1.314648,0.34727 -0.520898,-0.39688 -1.488281,-0.39688 -0.223242,0 -0.892969,0.22324 -0.644922,0.22325 -0.892969,0.17364 l -0.248047,-0.4961 0.04961,-0.59531 q 0.421679,-0.32246 1.190625,-1.09141 -0.124024,-0.892964 0.198437,-1.438668 h 0.198438 l 0.09922,-0.446484 0.248046,-0.09922 0.148829,-0.446484 h 0.198437 l 0.347266,-0.892969 q 0.297656,-0.37207 0.992187,-0.967383 0,-0.520898 0.694531,-1.389062 v -0.595313 q 0.669727,-1.438671 0.520899,-2.282031 L 49.83734,91.164316 49.341247,91.015488 q -0.297657,0.04961 -0.942578,0.04961 l -0.545703,0.347266 -0.545704,-0.297656 -0.545703,0.09922 -0.198437,-0.148828 h -0.694531 v -0.396875 q 0.37207,-0.520898 1.091406,-0.694531 l 0.496094,0.04961 q 0.496093,-0.570507 1.488281,-0.79375 h 0.694531 l 0.198437,-0.148828 0.768946,0.09922 q 0.37207,0 1.240234,-0.694531 0.719336,0.272851 1.240234,0.595312 0.446485,0.644922 0.545704,1.041797 v 0.198438 l 0.396875,0.843359 h 0.148828 q 0.396875,-0.79375 1.215429,-1.686719 0.967383,-1.016992 1.711524,-1.190625 l 0.545703,0.198438 0.347266,0.496093 q 0.644921,0.272852 0.992187,0.79375 v 0.396875 l 0.644922,0.644922 0.694531,0.198438 v 0.148828 z"
         style="font-style:normal;font-variant:normal;font-weight:normal;font-stretch:normal;font-size:50.8px;font-family:'Blackadder ITC';-inkscape-font-specification:'Blackadder ITC, Normal';font-variant-ligatures:normal;font-variant-caps:normal;font-variant-numeric:normal;font-variant-east-asian:normal;stroke-width:0.264583"
         id="path33" />
      <path
         d="m 79.62777,88.832675 -0.198438,0.347266 -0.347265,0.198437 v 0.198438 l -1.438672,0.148828 -0.198438,0.396875 v 0.496094 l -0.148828,0.198437 v 0.545703 h -0.198437 v 0.198438 l -0.297656,0.347266 -0.09922,0.446484 -0.396875,0.297656 0.148828,0.347266 q -0.223242,0.396875 -0.620117,1.785937 l -0.744141,0.892969 h 0.198438 v 0.198438 q -0.818555,0.545703 -1.289844,1.11621 l -0.09922,0.297657 0.09922,0.248047 -0.198438,1.637109 H 73.64984 v 0.347266 l -0.347265,0.545704 0.148828,0.34726 0.545703,0.14883 q 0.644922,-0.719334 2.00918,-1.240232 l 0.297656,0.545703 -0.471289,0.942579 q -1.091406,0.69453 -1.835547,1.78594 -1.488281,0.42168 -1.984375,0.34726 v -0.14883 h -0.545703 q -0.471289,-0.5705 -1.091406,-0.94257 0.04961,-0.57051 -0.148828,-1.5875 L 69.829919,99.870761 H 69.68109 q -1.141015,0.967379 -1.289843,1.438669 l -0.892969,0.19844 -0.347266,0.5457 -1.041797,0.39688 -0.620117,-0.19844 -0.595312,0.0992 q -0.917774,-0.57051 -1.5875,-0.64492 l -0.694531,-0.54571 q -0.744141,-1.686714 -0.744141,-2.430854 0,-0.396875 0.198437,-0.992188 h 0.148829 q 0.124023,-0.347266 0.347265,-1.265039 l -0.148828,-0.396875 v -0.198437 q 0,-0.248047 0.297656,-0.719336 0.322461,-0.471289 0.347266,-0.719336 1.488281,-1.041797 1.785937,-3.075782 0.520899,-0.347265 0.818555,-0.74414 0.892969,-0.297656 1.289844,-0.496094 h 0.198437 q 0.545703,-0.644922 1.240235,-1.091406 l 0.198437,-0.396875 1.63711,-0.545703 1.438671,0.198437 0.545703,0.347266 H 72.9057 l 0.74414,-0.694531 h 0.694532 l 0.942578,0.347265 0.719336,-0.198437 0.396875,0.198437 0.148828,0.347266 1.289843,-0.148828 0.545704,-0.396875 0.347265,0.198437 0.545703,-0.198437 q 0.223243,0.223242 0.347266,0.74414 z M 73.997106,89.576816 72.9057,89.179941 q -0.992188,0.272852 -1.785938,0.198437 l -1.289843,0.545704 -0.694532,0.694531 q -0.07441,0.396875 -0.892968,2.38125 -0.79375,1.984375 -0.942579,2.083594 l -0.09922,0.545703 -0.496094,0.446484 -0.09922,0.347266 0.09922,0.347265 -0.545703,0.768946 v 0.644921 l -0.297656,0.297657 v 0.496093 l -0.198438,0.347266 v 0.198438 l -0.520898,0.198437 v 0.694527 l 0.148828,0.19844 0.768945,0.34727 q 0.595313,-0.19844 1.785938,-1.091409 h 0.198437 l 0.545703,-0.347265 q 0.272852,-0.396875 0.892969,-1.091407 v -0.148828 l 0.347266,-0.198437 q 0.545703,-0.992188 1.637109,-2.902149 v -0.198437 l 0.545703,-0.545703 q 0.07441,-0.818555 0.644922,-1.785938 -0.04961,-0.173633 0.148828,-0.942578 l 0.396875,-0.148828 v -0.198438 l -0.09922,-0.198437 q 0.148828,-0.347266 0.545703,-1.041797 h 0.148828 z"
         style="font-style:normal;font-variant:normal;font-weight:normal;font-stretch:normal;font-size:50.8px;font-family:'Blackadder ITC';-inkscape-font-specification:'Blackadder ITC, Normal';font-variant-ligatures:normal;font-variant-caps:normal;font-variant-numeric:normal;font-variant-east-asian:normal;stroke-width:0.264583"
         id="path35" />
      <path
         d="m 95.403547,90.86666 -0.148828,0.496093 -0.446485,0.595313 -0.868164,-0.09922 -0.446484,-0.446484 -0.248047,-0.744141 0.148828,-0.992187 -0.545703,-0.545703 q -0.37207,-0.248047 -1.835547,-0.248047 -0.248047,0 -0.644922,0.09922 -0.496094,0.396875 -0.79375,0.545704 l -0.347265,0.595312 q 0.198437,0.694531 0.198437,1.190625 l 0.248047,0.446484 q 0.992187,0.620118 1.934766,1.934766 1.016992,1.463477 0.992187,2.480469 l -0.297656,0.719336 -0.446485,0.347265 -0.09922,0.545703 q -0.620118,0.446485 -0.744141,1.488282 l -0.595312,0.347265 -0.198438,0.496096 q -0.248047,0.17363 -0.694531,0.59531 l -0.694531,-0.0992 q -0.744141,0.24805 -1.63711,1.14102 -0.942578,0.17363 -1.5875,0.74414 -1.091406,0.0992 -1.686718,0.0992 0.272851,0 -1.116211,-0.24805 -0.967383,-0.17363 -1.289844,-0.29766 -0.471289,-0.14882 -1.240234,-0.64492 -0.520899,-0.76894 -1.240235,-1.38906 -0.198437,-0.496094 -0.198437,-1.488282 0.248047,-1.041797 0.347265,-1.240234 l 0.396875,-0.471289 0.198438,-0.79375 h 0.198437 l 0.09922,-0.744141 0.744141,-0.545703 h 0.545703 q 0.09922,0 0.843359,0.148828 1.16582,0.471289 1.5875,2.058789 l -0.09922,0.595313 0.173633,0.694531 -0.173633,0.694531 -0.644922,0.892969 h -0.545703 l -0.396875,-0.744141 -0.09922,-0.74414 -0.347266,-0.446485 h -0.496094 l -0.496094,0.297656 q -0.272851,0.917774 -0.198437,1.736329 l 0.843359,0.793749 q 1.562696,0.44648 2.38125,0.44648 0.223243,0 0.644922,-0.0248 0.42168,-0.0248 0.620117,-0.0248 0.446485,-0.17364 1.041797,-0.81856 0.620117,-0.644921 1.041797,-0.818554 0.04961,-0.148828 0.396875,-0.843359 l -0.04961,-0.595313 0.446484,-0.396875 -0.248047,-0.545703 0.148828,-0.421679 -0.347265,-0.297657 -0.744141,-0.198437 q -0.148828,-0.223242 -0.446484,-0.719336 -0.297657,-0.496094 -0.446485,-0.719336 h -0.198437 l -0.148828,-0.148828 q -0.347266,-1.091406 -0.644922,-1.835547 0,-0.520898 0.148828,-1.041797 0.396875,-0.471289 0.892969,-1.339453 l 0.04961,-0.694531 0.446484,-0.347266 0.148829,-0.545703 h 0.198437 L 86.994758,88.4358 q 0.620117,-0.124023 1.835547,-0.644921 1.488281,-0.248047 1.835546,-0.248047 0.694532,0 1.984375,0.198437 0.471289,0.272852 1.438672,0.744141 0.496094,0.520898 1.165821,1.389062 z"
         style="font-style:normal;font-variant:normal;font-weight:normal;font-stretch:normal;font-size:50.8px;font-family:'Blackadder ITC';-inkscape-font-specification:'Blackadder ITC, Normal';font-variant-ligatures:normal;font-variant-caps:normal;font-variant-numeric:normal;font-variant-east-asian:normal;stroke-width:0.264583"
         id="path37" />
      <path
         d="m 113.95746,88.832675 -0.19844,0.347266 -0.34726,0.198437 v 0.198438 l -1.43868,0.148828 -0.19843,0.396875 v 0.496094 l -0.14883,0.198437 v 0.545703 h -0.19844 v 0.198438 l -0.29766,0.347266 -0.0992,0.446484 -0.39688,0.297656 0.14883,0.347266 q -0.22324,0.396875 -0.62012,1.785937 l -0.74414,0.892969 h 0.19844 v 0.198438 q -0.81856,0.545703 -1.28985,1.11621 l -0.0992,0.297657 0.0992,0.248047 -0.19843,1.637109 h -0.14883 v 0.347266 l -0.34727,0.545704 0.14883,0.34726 0.5457,0.14883 q 0.64493,-0.719334 2.00918,-1.240232 l 0.29766,0.545703 -0.47129,0.942579 q -1.0914,0.69453 -1.83555,1.78594 -1.48828,0.42168 -1.98437,0.34726 v -0.14883 h -0.5457 q -0.47129,-0.5705 -1.09141,-0.94257 0.0496,-0.57051 -0.14883,-1.5875 l -0.39687,-0.396879 h -0.14883 q -1.14102,0.967379 -1.28984,1.438669 l -0.89297,0.19844 -0.34727,0.5457 -1.0418,0.39688 -0.620113,-0.19844 -0.595312,0.0992 q -0.917774,-0.57051 -1.5875,-0.64492 l -0.694531,-0.54571 q -0.744141,-1.686714 -0.744141,-2.430854 0,-0.396875 0.198437,-0.992188 h 0.148829 q 0.124023,-0.347266 0.347265,-1.265039 l -0.148828,-0.396875 v -0.198437 q 0,-0.248047 0.297656,-0.719336 0.322461,-0.471289 0.347266,-0.719336 1.488281,-1.041797 1.785937,-3.075782 0.520899,-0.347265 0.818555,-0.74414 0.89297,-0.297656 1.28984,-0.496094 h 0.19844 q 0.5457,-0.644922 1.24024,-1.091406 l 0.19843,-0.396875 1.63711,-0.545703 1.43867,0.198437 0.54571,0.347266 h 0.69453 l 0.74414,-0.694531 h 0.69453 l 0.94258,0.347265 0.71933,-0.198437 0.39688,0.198437 0.14883,0.347266 1.28984,-0.148828 0.5457,-0.396875 0.34727,0.198437 0.5457,-0.198437 q 0.22325,0.223242 0.34727,0.74414 z m -5.63067,0.744141 -1.0914,-0.396875 q -0.99219,0.272852 -1.78594,0.198437 l -1.28984,0.545704 -0.69453,0.694531 q -0.0744,0.396875 -0.89297,2.38125 -0.79375,1.984375 -0.94258,2.083594 l -0.0992,0.545703 -0.49609,0.446484 -0.0992,0.347266 0.0992,0.347265 -0.54571,0.768946 v 0.644921 l -0.29765,0.297657 v 0.496093 l -0.19844,0.347266 v 0.198438 l -0.520898,0.198437 v 0.694527 l 0.148828,0.19844 0.76895,0.34727 q 0.59531,-0.19844 1.78593,-1.091409 h 0.19844 l 0.5457,-0.347265 q 0.27285,-0.396875 0.89297,-1.091407 v -0.148828 l 0.34727,-0.198437 q 0.5457,-0.992188 1.63711,-2.902149 v -0.198437 l 0.5457,-0.545703 q 0.0744,-0.818555 0.64492,-1.785938 -0.0496,-0.173633 0.14883,-0.942578 l 0.39688,-0.148828 v -0.198438 l -0.0992,-0.198437 q 0.14882,-0.347266 0.5457,-1.041797 h 0.14883 z"
         style="font-style:normal;font-variant:normal;font-weight:normal;font-stretch:normal;font-size:50.8px;font-family:'Blackadder ITC';-inkscape-font-specification:'Blackadder ITC, Normal';font-variant-ligatures:normal;font-variant-caps:normal;font-variant-numeric:normal;font-variant-east-asian:normal;stroke-width:0.264583"
         id="path39" />
      <path
         d="m 132.36253,90.0233 -0.14883,0.198438 v 0.917773 l -0.19843,0.198438 -0.39688,0.917773 0.14883,0.347266 -0.19844,0.198437 q -0.0744,0.570508 -0.37207,1.5875 l 0.0992,0.248047 q -0.49609,0.669727 -1.16582,2.00918 -0.69453,1.463476 -0.69453,2.058789 l -0.37207,0.545703 0.0992,0.719336 q 1.0914,-0.79375 1.63711,-1.562695 l 0.64492,-0.272852 0.76894,0.198438 q -0.0992,0.520898 -0.91777,1.488281 -0.94258,1.116208 -1.21543,1.661918 l -0.34726,0.22324 v 0.14883 l -1.21543,0.76894 q -0.81856,-0.0744 -1.88516,-0.91777 -0.12402,-0.22324 -0.57051,-0.57051 l -0.24804,-0.5457 v -0.57051 l -0.19844,-0.347266 0.14883,-0.42168 q -0.0496,-0.545703 -0.0496,-0.545703 0,-1.041797 1.04179,-2.926953 1.0666,-1.909961 0.99219,-3.373438 0.49609,-0.892968 0.71934,-2.182812 l -0.5209,-0.198438 -0.19844,0.198438 v 0.148828 l -1.11621,0.768945 v 0.198438 l -0.71934,0.148828 v 0.198437 q -0.81855,0.272852 -1.11621,0.719336 v 0.396875 q -0.32246,0.223242 -1.31465,0.372071 v 0.347265 h -0.34726 l -0.17363,0.198438 h -0.19844 l -0.19844,0.347265 v 0.42168 l -0.5457,0.148828 v 0.347266 l -0.27285,0.570508 -0.0496,0.868164 q -0.32246,0.471289 -0.59532,1.53789 -0.27285,1.041797 -0.5705,1.513086 -0.47129,0.297656 -0.96739,1.066604 -0.5705,0.89297 -0.86816,1.16582 -0.89297,0.19844 -2.72852,0.59531 l -0.62011,-0.24805 -0.86817,0.24805 -0.94258,-0.64492 -0.42167,-0.96738 0.19843,-0.868168 0.57051,-0.198438 q 0.76895,0.372071 1.26504,0.694536 l 0.91777,-0.14883 0.62012,-0.396878 0.14883,-1.066601 0.19844,-0.148828 q -0.0248,-0.892969 0.19843,-1.5875 0.37207,-0.694531 1.0666,-2.133203 0.24805,-1.190625 1.11622,-3.497461 l -0.14883,-0.570508 0.14883,-0.396875 -0.34727,-0.347266 -0.57051,0.198438 v 0.148828 l -0.74414,0.198437 -0.5209,0.347266 q -1.11621,0.173633 -1.88515,0.42168 l -0.91778,-0.42168 -0.19843,-0.545703 0.19843,-0.347266 q 2.6293,0.04961 5.55625,-1.686718 h 0.39688 l 1.21543,-0.868164 0.62012,-0.09922 0.5457,0.248047 q 1.0914,1.116211 0.91777,1.835547 l -0.34726,0.198437 v 0.37207 l -0.37207,0.545703 q 0.0496,0.198438 -0.0992,0.719336 l 0.0992,0.396875 0.37207,0.198438 q 0.94257,-0.322461 2.03398,-1.116211 v -0.198438 h 0.19844 l 0.49609,-0.347265 h 0.22324 l 0.54571,-0.42168 0.19843,-0.347265 0.71934,-0.148829 v -0.198437 q 0.74414,-0.396875 1.31465,-0.570508 l 0.14883,-0.198437 h 0.42168 q 0.74414,-0.297657 1.11621,-0.719336 h 0.5457 l 0.14883,0.37207 h 0.22324 q 0.42168,0.520898 0.69453,1.463477 z"
         style="font-style:normal;font-variant:normal;font-weight:normal;font-stretch:normal;font-size:50.8px;font-family:'Blackadder ITC';-inkscape-font-specification:'Blackadder ITC, Normal';font-variant-ligatures:normal;font-variant-caps:normal;font-variant-numeric:normal;font-variant-east-asian:normal;stroke-width:0.264583"
         id="path41" />
      <path
         d="m 149.00648,87.592441 -0.14883,0.892969 -0.5457,0.148828 q -0.24805,-0.04961 -1.26504,-0.297656 -0.74414,-0.198438 -1.26504,-0.198438 -0.0496,0 -0.94258,0.148828 l -0.14883,0.198438 h -1.04179 l -0.54571,0.496093 q -0.12402,0.644922 -0.59531,1.488282 0.0744,0.719336 -0.19844,1.637109 l -0.34726,0.347266 0.19843,0.942578 -0.34726,0.148828 -0.19844,0.347266 0.19844,0.396875 -0.39688,0.446484 -0.14882,0.744141 -0.19844,0.04961 -0.34727,0.744141 v 0.148828 l -0.74414,0.396875 0.19844,0.570507 -0.39688,0.347266 -0.14882,0.545703 -0.57051,0.744141 v 0.347265 l 0.14883,0.148829 h 0.42168 v 0.396875 l -0.19844,0.148829 q 0.19844,0.47129 0.29765,1.14101 l 0.99219,-0.19843 0.39688,0.24804 0.29765,-0.24804 0.39688,0.14882 q 0.5209,-0.19843 1.5875,-0.5457 l 0.5457,-0.5457 0.39688,-1.041798 v -0.942578 q 0.42168,-1.066602 0.89297,-1.562696 l -0.39688,-0.248046 0.39688,-0.347266 v -0.198438 l 0.5457,-0.347265 h 0.5457 q 0.57051,0.148828 0.5457,0.148828 l 0.4961,1.091406 -0.34727,0.570508 v 0.545703 q -0.59531,0.818555 -1.24023,1.091406 v 0.198438 l -0.5457,0.694531 q -0.0992,0.843357 -0.64493,1.389067 l -0.59531,0.39687 -0.39687,0.5457 q -1.09141,0.59532 -1.78594,0.54571 l -0.19844,0.39687 h -0.34726 l -0.19844,-0.19844 q -0.5209,0.12403 -0.74414,0.34727 l -0.89297,0.19844 v -0.19844 q -1.16582,-0.19844 -1.81074,-0.14883 -0.19844,-0.32246 -0.86817,-0.71933 -0.74414,-0.44649 -0.96738,-0.71934 v -0.94258 l -0.14883,-0.14883 v -0.744137 q 0.57051,-1.513086 0.5457,-1.984375 l 0.29766,-0.297656 q 0.29766,-0.520899 0.19844,-1.364258 l 0.64492,-0.843359 q -0.0248,-0.223243 0.34727,-1.885157 l 0.44648,-0.496093 -0.19844,-0.396875 q 0.27285,-0.967383 0.79375,-2.877344 h 0.34727 q 0.22324,-0.297656 0.37207,-1.289844 l -0.22324,-0.198437 -0.89297,0.198437 q -0.5209,0.42168 -0.89297,0.545703 l -0.5457,-0.148828 q -1.017,0.496094 -1.98438,0.347266 l 0.19844,-0.744141 q 0.62012,-0.496093 1.43867,-0.892968 h 0.34727 l 0.19843,-0.347266 h 0.54571 l 0.69453,-0.347266 0.44648,0.09922 q 0.96738,-0.173633 1.71153,-0.471289 l 0.24804,-0.744141 h 0.34727 l 0.74414,-0.892968 0.14883,-0.545703 q 0.49609,-0.297657 0.74414,-0.396875 l 0.14883,-0.545704 0.5457,0.198438 0.19844,-0.198438 v -0.347265 l 0.74414,-0.347266 v -0.347265 l 0.34726,-0.545704 h 0.34727 l 0.19844,0.148829 0.34726,-0.148829 v 1.240235 l -0.34726,0.198437 v 0.148828 l -0.19844,0.198438 v 0.545703 l -0.74414,0.892969 q -0.0744,0.942578 -0.64492,1.711523 0.96738,0.07441 1.93476,0.297656 0.44649,-0.148828 1.38906,-0.148828 1.017,0 1.68672,0.148828 z"
         style="font-style:normal;font-variant:normal;font-weight:normal;font-stretch:normal;font-size:50.8px;font-family:'Blackadder ITC';-inkscape-font-specification:'Blackadder ITC, Normal';font-variant-ligatures:normal;font-variant-caps:normal;font-variant-numeric:normal;font-variant-east-asian:normal;stroke-width:0.264583"
         id="path43" />
      <path
         d="m 175.86996,74.148301 -0.34727,2.009179 -0.74414,0.347266 -0.49609,1.289844 -0.37207,0.148828 q -0.19844,0.545703 -0.74415,1.091406 -1.46347,0.347266 -3.07578,0.347266 -1.6123,0 -4.16718,-0.992188 -0.27286,-0.297656 -0.64493,-0.942578 l -0.34726,-0.09922 -0.29766,-0.496094 -1.26504,-0.148828 -1.24023,0.694532 v 0.198437 h -0.24805 l -0.14883,1.091406 -0.34726,0.148828 v 0.545704 q -0.76895,1.984375 -1.5875,4.018359 l -0.59531,0.347266 q -0.24805,0.843359 -0.14883,2.182812 l -0.34727,0.917773 v 0.84336 l -0.39687,0.396875 v 0.545703 q -0.59532,0.892969 -0.94258,1.289844 l -0.14883,1.091406 0.14883,0.545703 0.44648,-0.396875 q 1.16582,-0.173633 1.98438,-1.091406 l 0.49609,-0.148828 0.74414,-0.892969 h 0.4961 l 0.59531,-0.396875 h 0.29766 l 0.5457,-0.347266 1.56269,-0.09922 1.19063,0.992187 v 0.198437 l 0.19844,0.198438 0.39687,1.041797 0.19844,0.198437 -0.19844,1.041797 q -0.76894,0.570508 -1.0914,1.289844 h -0.24805 q -0.27285,0.79375 -0.14883,2.182812 l -0.19844,0.198438 v 0.694531 l -0.29765,0.198438 q -0.5209,2.009179 -1.36426,2.554882 l -0.14883,0.744141 0.14883,0.545707 0.59531,-0.14883 q 0.37207,-0.322463 1.66192,-1.141018 h 0.19843 v 0.198438 l -0.19843,0.89297 -0.39688,0.19844 v 0.14882 q -0.37207,0.39688 -1.16582,1.19063 l -1.24023,0.49609 q -0.29766,-0.0992 -1.5379,-0.0992 l -1.0914,-0.79375 q -0.59531,-1.19062 -0.59531,-2.03398 l 0.29765,-0.248047 -0.14883,-0.496094 q 0.0496,-0.297656 0.0496,-0.892968 l 0.14883,-0.198438 v -0.347266 q 0.42168,-0.496093 1.01699,-1.860351 0.62012,-1.389063 0.62012,-1.984375 l 0.69453,-1.240234 v -0.347266 h 0.24805 v -0.396875 l 0.29766,-0.148828 V 90.81705 h 0.19843 l 0.19844,-0.347265 -0.19844,-0.744141 h -0.89297 q -0.5705,0.248047 -0.99218,0.843359 l -1.19063,0.595313 -0.0496,0.496094 -0.79375,0.248047 v 0.198437 l -0.14883,0.198438 q -0.22324,0.07441 -0.66972,0.248046 -0.44649,0.173633 -0.66973,0.248047 l -0.19844,0.347266 h -0.14882 l -0.14883,0.396875 v 0.148828 l -0.59532,0.198438 v 0.446484 q -0.62011,1.364258 -0.49609,2.083594 l -0.24805,0.198437 v 0.148828 q -0.24804,0.892969 -0.69453,1.116211 v 0.347266 l -0.39687,0.396875 -0.34727,1.240234 q -0.62011,0.520899 -0.91777,1.438669 -0.39688,0.39688 -1.28984,1.09141 v 0.19844 l -0.64493,0.34726 q -1.51308,-0.22324 -1.83554,-0.5457 v -0.14883 l -0.34727,-0.39687 0.19844,-0.69454 0.14883,-0.19843 h 0.14882 v -0.19844 l 0.59532,-0.69453 q 0.17363,-2.48047 0.49609,-4.191993 0.12402,-0.223243 0.59531,-0.545704 l 0.14883,-0.545703 0.4961,-0.347265 v -0.198438 l -0.14883,-0.148828 v -0.396875 l 0.59531,-0.545703 0.14883,-0.347266 q 0.39687,-0.173633 0.69453,-0.545703 v -0.545703 q 0.94258,-0.992187 0.71933,-2.530078 0.5209,-0.868164 1.43868,-1.686719 l 0.0992,-0.496093 h 0.19843 l -0.0992,-0.496094 0.24805,-0.42168 v -0.545703 l 0.29766,-0.148828 v -0.744141 l 0.19843,-0.198437 v -0.496094 l 0.74415,-1.091406 v -0.396875 l 0.49609,-0.892969 v -0.198437 h 0.24805 v -0.347266 l 0.34726,-0.694531 -0.14883,-1.289844 0.14883,-0.545703 h 0.14883 v -0.347266 l 0.94258,-0.347265 0.14883,-0.396875 0.74414,-0.545704 h 0.34726 l 0.14883,-0.347265 0.44648,-0.347266 q 1.09141,-0.471289 1.5379,-0.37207 l 0.94257,-0.396875 q 0.37207,0 1.5875,0.04961 0.96739,0.02481 1.5627,0 l 0.44648,-0.198437 h 0.94258 q 0.12402,0 1.51309,0.496094 1.38906,0.471289 1.56269,0.570507 l 0.54571,0.545703 0.59531,0.198438 0.74414,-0.09922 0.64492,-0.396875 q 0.64492,-0.942578 0.76895,-1.761133 l -0.14883,-1.190625 0.14883,-0.396875 0.49609,-0.148828 0.59531,0.347266 z"
         style="font-style:normal;font-variant:normal;font-weight:normal;font-stretch:normal;font-size:50.8px;font-family:'Blackadder ITC';-inkscape-font-specification:'Blackadder ITC, Normal';font-variant-ligatures:normal;font-variant-caps:normal;font-variant-numeric:normal;font-variant-east-asian:normal;stroke-width:0.264583"
         id="path45" />
    </g>
  </g>
</svg>
